<svg xmlns="http://www.w3.org/2000/svg" xmlns:xlink="http://www.w3.org/1999/xlink"><symbol id="sprite-arrow-left" viewBox="0 0 25 44.6">
<path d="M2.4,22.3L24.7,1.5c0.4-0.4,0.4-0.9-0.1-1.3c-0.4-0.4-1-0.4-1.3,0L0.3,21.7c-0.4,0.4-0.4,0.9,0,1.3l0,0l23.1,21.4
	c0.4,0.4,1,0.4,1.4,0l0,0c0.4-0.4,0.4-0.9,0-1.3l0,0L2.4,22.3z"/>
</symbol><symbol id="sprite-arrow-right" viewBox="0 0 25 46.9">
<path d="M22.7,23.4L0.3,1.6c-0.4-0.4-0.4-1,0.1-1.3c0.4-0.4,1-0.4,1.3,0l23.1,22.5c0.4,0.4,0.4,1,0,1.3L1.7,46.6
	c-0.4,0.4-1,0.4-1.4,0l0,0c-0.4-0.4-0.4-1,0-1.3l0,0C0.3,45.2,22.7,23.4,22.7,23.4z"/>
</symbol><symbol id="sprite-arrow" viewBox="0 0 18.6 34">
<polyline fill="none" stroke-linejoin="butt" stroke-linecap="butt" stroke-width="2" points="1,1 17,17 1,33"/> </symbol></svg>